<svg width="36" height="24" viewBox="0 0 36 24" fill="none" xmlns="http://www.w3.org/2000/svg">
<path d="M18.2798 13.5873C19.6198 13.5873 20.7061 12.5008 20.7061 11.1605C20.7061 9.82017 19.6198 8.73364 18.2798 8.73364C16.9398 8.73364 15.8535 9.82017 15.8535 11.1605C15.8535 12.5008 16.9398 13.5873 18.2798 13.5873Z" fill="#FF2F42"/>
<path d="M5.41016 2.7948H31.1539V3.88512C31.1539 4.08046 31.0718 4.26423 30.9312 4.39312L28.626 6.4644C28.3251 6.80041 27.911 6.99194 27.4812 6.99194H25.6527C25.6527 6.99194 25.6488 8.50755 25.6488 9.39265C25.6488 10.2776 25.2865 11.2332 25.2865 11.2332L25.5334 11.4802C25.7979 11.117 26.9668 9.67664 27.743 9.67664L30.6772 9.66104V13.4048L25.6488 13.4635V20.7948L24.7697 19.9194C23.7678 18.9233 22.7642 17.9289 21.7652 16.9299V9.91509C21.7652 8.87056 21.9969 8.02082 22.2101 7.08759L22.2105 7.08568L22.2119 7.07974L22.2134 7.0739C22.2154 7.06668 22.2171 7.06031 22.2167 7.05341C22.2164 7.04778 22.2147 7.04183 22.2105 7.03493C22.184 6.99502 22.0747 6.9552 21.9706 6.93524C21.891 6.92006 21.8147 6.91645 21.7808 6.93333C21.2231 7.2052 20.6308 7.30667 20.0166 7.31712C18.8607 7.33663 17.702 7.33645 16.546 7.31712C15.9323 7.30664 15.3404 7.20496 14.7832 6.93333C14.7051 6.89426 14.4003 6.96455 14.3535 7.03493C14.3417 7.05447 14.3495 7.06615 14.3535 7.08568L14.3539 7.08759C14.567 8.02042 14.7988 8.87969 14.7988 9.91509V16.9299C13.5074 18.2213 12.2093 19.506 10.9152 20.7948V13.4635L5.88684 13.4048V9.66104L8.82103 9.67664C9.59721 9.67664 10.7661 11.117 11.0306 11.4802L11.2775 11.2332C11.2775 11.2332 10.9152 10.2776 10.9152 9.39265C10.9152 8.50755 10.9113 6.99194 10.9113 6.99194H9.08278C8.65303 6.99194 8.23888 6.80041 7.93806 6.4644L5.63284 4.39312C5.49222 4.26423 5.41016 4.08046 5.41016 3.88512V2.7948Z" fill="#071E3F"/>
</svg>
