<svg width="66" height="24" viewBox="0 0 66 24" fill="none" xmlns="http://www.w3.org/2000/svg">
<rect width="60" height="24" fill="#071E3F"/>
<path d="M30.2798 13.588C31.6198 13.588 32.7061 12.5015 32.7061 11.1612C32.7061 9.82091 31.6198 8.73438 30.2798 8.73438C28.9398 8.73438 27.8535 9.82091 27.8535 11.1612C27.8535 12.5015 28.9398 13.588 30.2798 13.588Z" fill="#3C5D8A"/>
<path d="M17.4102 2.79492H43.1539V3.88524C43.1539 4.08058 43.0718 4.26436 42.9312 4.39324L40.6259 6.46452C40.3251 6.80054 39.911 6.99206 39.4812 6.99206H37.6527C37.6527 6.99206 37.6488 8.50767 37.6488 9.39277C37.6488 10.2778 37.2865 11.2334 37.2865 11.2334L37.5334 11.4803C37.7979 11.1171 38.9668 9.67677 39.743 9.67677L42.6772 9.66116V13.405L37.6488 13.4636V20.7949L36.7697 19.9195C35.7678 18.9234 34.7642 17.929 33.7652 16.93V9.91521C33.7652 8.87068 33.9969 8.02094 34.2101 7.08771L34.2105 7.0858L34.2119 7.07986L34.2134 7.07402C34.2154 7.0668 34.2171 7.06043 34.2167 7.05353C34.2164 7.0479 34.2147 7.04196 34.2105 7.03506C34.184 6.99514 34.0747 6.95533 33.9706 6.93537C33.891 6.92019 33.8147 6.91658 33.7808 6.93346C33.2231 7.20532 32.6308 7.30679 32.0166 7.31724C30.8607 7.33675 29.702 7.33657 28.546 7.31724C27.9323 7.30676 27.3404 7.20509 26.7832 6.93346C26.7051 6.89439 26.4003 6.96467 26.3535 7.03506C26.3417 7.05459 26.3495 7.06627 26.3535 7.0858L26.3539 7.08771C26.567 8.02055 26.7988 8.87982 26.7988 9.91521V16.93C25.5074 18.2214 24.2093 19.5062 22.9152 20.7949V13.4636L17.8868 13.405V9.66116L20.821 9.67677C21.5972 9.67677 22.7661 11.1171 23.0306 11.4803L23.2775 11.2334C23.2775 11.2334 22.9152 10.2778 22.9152 9.39277C22.9152 8.50767 22.9113 6.99206 22.9113 6.99206H21.0828C20.653 6.99206 20.2389 6.80054 19.9381 6.46452L17.6328 4.39324C17.4922 4.26436 17.4102 4.08058 17.4102 3.88524V2.79492Z" fill="#3C5D8A"/>
<path d="M60 0H66L60 24V0Z" fill="#071E3F"/>
</svg>
