<svg width="225" height="120" viewBox="0 0 225 120" fill="none" xmlns="http://www.w3.org/2000/svg">
<path d="M136.241 60.0651C139.416 60.0651 141.99 57.4906 141.99 54.3148C141.99 51.139 139.416 48.5645 136.241 48.5645C133.066 48.5645 130.492 51.139 130.492 54.3148C130.492 57.4906 133.066 60.0651 136.241 60.0651Z" fill="white"/>
<path fill-rule="evenodd" clip-rule="evenodd" d="M87.0959 38.4785C72.9868 38.4785 61.4732 47.3985 61.4732 60.4838C61.4732 73.569 72.8252 82.432 87.0959 82.432C101.367 82.432 112.719 73.4644 112.719 60.4838C112.719 47.5031 101.205 38.4785 87.0959 38.4785ZM87.153 47.5127C95.9094 47.5127 102.232 53.2945 102.232 60.4838C102.232 67.8918 95.5861 73.4073 87.153 73.4073C78.7198 73.4073 71.9124 67.9964 71.9124 60.4838C71.9124 52.9712 78.3966 47.5127 87.153 47.5127Z" fill="#FF2F42"/>
<path fill-rule="evenodd" clip-rule="evenodd" d="M12.5 39.3439V81.519H32.713C47.4211 81.519 56.1205 72.7036 56.1205 60.1604C56.1205 48.7489 48.9898 39.3439 32.1235 39.3439H12.5ZM31.5245 72.6466C28.7198 72.6466 25.6299 72.6466 22.2832 74.1586V74.1681L21.1518 73.084C23.3101 64.7536 23.253 56.1569 21.0948 47.2939L22.2832 46.7519C25.088 48.2069 27.3127 48.2069 29.6325 48.2069C36.0121 48.2069 45.6907 48.2069 45.6907 60.5884C45.6907 70.9158 38.5506 72.6466 31.5245 72.6466Z" fill="#FF2F42"/>
<path fill-rule="evenodd" clip-rule="evenodd" d="M161.255 60.4838C161.255 47.3985 172.768 38.4785 186.877 38.4785C200.986 38.4785 212.5 47.5031 212.5 60.4838C212.5 73.4644 201.148 82.432 186.877 82.432C172.607 82.432 161.255 73.569 161.255 60.4838ZM202.013 60.4838C202.013 53.2945 195.691 47.5127 186.934 47.5127C178.178 47.5127 171.694 52.9712 171.694 60.4838C171.694 67.9964 178.501 73.4073 186.934 73.4073C195.367 73.4073 202.013 67.8918 202.013 60.4838Z" fill="#FF2F42"/>
<path d="M105.742 10.7539H166.741V13.3374C166.741 13.8003 166.546 14.2357 166.213 14.5411L160.751 19.449C160.038 20.2451 159.057 20.6989 158.039 20.6989H153.706C153.706 20.6989 153.697 24.2902 153.697 26.3874C153.697 28.4844 152.838 30.7486 152.838 30.7486L153.423 31.3338C154.05 30.4732 156.82 27.0603 158.659 27.0603L165.611 27.0233V35.8942L153.697 36.0331V53.4046L151.614 51.3302C149.24 48.9701 146.862 46.6138 144.495 44.2467V27.6253C144.495 25.1503 145.044 23.1369 145.549 20.9256L145.55 20.9211L145.553 20.907L145.557 20.8931C145.561 20.876 145.565 20.8609 145.564 20.8446C145.564 20.8313 145.56 20.8172 145.55 20.8008C145.487 20.7062 145.228 20.6119 144.981 20.5646C144.793 20.5286 144.612 20.5201 144.532 20.5601C143.21 21.2043 141.807 21.4447 140.351 21.4695C137.612 21.5157 134.867 21.5153 132.128 21.4695C130.674 21.4446 129.271 21.2037 127.951 20.5601C127.766 20.4675 127.044 20.634 126.933 20.8008C126.905 20.8471 126.923 20.8748 126.933 20.9211L126.934 20.9256C127.439 23.1359 127.988 25.1719 127.988 27.6253V44.2467C124.928 47.3067 121.852 50.3509 118.786 53.4046V36.0331L106.871 35.8942V27.0233L113.824 27.0603C115.663 27.0603 118.432 30.4732 119.059 31.3338L119.644 30.7486C119.644 30.7486 118.786 28.4844 118.786 26.3874C118.786 24.2902 118.777 20.6989 118.777 20.6989H114.444C113.426 20.6989 112.444 20.2451 111.732 19.449L106.269 14.5411C105.936 14.2357 105.742 13.8003 105.742 13.3374V10.7539Z" fill="#FF2F42"/>
<path d="M118.898 66.1107L153.972 66.1583V91.568C153.972 96.2753 153.972 109.246 137.381 109.246C127.008 109.246 118.898 103.845 118.898 94.3828V87.2126H128.739V92.9754C128.739 96.979 131.819 100.222 136.896 100.222C143.542 100.222 144.084 95.8378 144.084 92.9184V81.9823C144.084 79.1693 144.586 76.9328 145.472 74.27C145.481 74.2415 145.472 74.2224 145.443 74.2129C145.225 74.1163 144.369 73.5568 144.16 73.6614C141.767 74.8992 139.194 75.2019 136.544 75.2019H118.898V66.1107Z" fill="#FF2F42"/>
</svg>
